<svg xmlns="http://www.w3.org/2000/svg" viewBox="-45 211.4 504 371.2"><path fill="#09B952" d="M3.4 534.2V344.5h189.7v189.7H3.4zm9.8-9.8h170.1V354.3H13.2v170.1z"/><path fill="#09B952" d="M44.9 473.9c-2.7 0-4.9-2.2-4.9-4.9v-14.8c0-5.3 2.1-10.2 5.8-14 3.7-3.7 8.7-5.8 13.9-5.8h9.9c2.7 0 5.1-1 7-2.9 1.9-1.9 2.9-4.4 2.9-7 0-2.7-1-5.1-2.9-7-1.9-1.9-4.4-2.9-7-2.9h-9.9c-2.7 0-5.2 1-7 2.9-.9.9-1.6 1.9-2.1 3H40.4c.8-3.8 2.6-7.2 5.4-10 3.7-3.7 8.7-5.8 13.9-5.8h9.9c5.3 0 10.2 2.1 13.9 5.8 3.7 3.7 5.8 8.7 5.8 13.9 0 5.3-2.1 10.2-5.8 14-3.7 3.7-8.7 5.8-13.9 5.8h-9.9c-2.7 0-5.1 1-7 2.9-1.9 1.9-2.9 4.4-2.9 7v9.9H56v9.8H44.9z"/><path fill="#09B952" d="M55.1 464.1h34.2v9.8H55.1zm71.8-19.8c-5.3 0-10.2-2.1-14-5.8-3.7-3.7-5.8-8.7-5.8-13.9v-19.7h9.8v19.7c0 2.7 1 5.1 2.9 7 1.9 1.9 4.4 2.9 7 2.9h29.6v9.8h-29.5z"/><path fill="#09B952" d="M146.8 404.8h9.8v69.1h-9.8z"/><path fill="#737281" d="M220.9 344.5h11.8v11.8h-11.8zm35.6 0h11.8v11.8h-11.8zm-35.6 35.6h11.8v11.8h-11.8zm35.6 0h11.8v11.8h-11.8zm35.5 0h11.8v11.8H292zm35.6 0h11.8v11.8h-11.8zm35.6 0H375v11.8h-11.8zm35.6 0h11.8v11.8h-11.8zm-177.9 35.6h11.8v11.8h-11.8zm35.6 0h11.8v11.8h-11.8zm35.5 0h11.8v11.8H292zm35.6 0h11.8v11.8h-11.8zm35.6 0H375v11.8h-11.8zm35.6 0h11.8v11.8h-11.8zm-177.9 35.6h11.8v11.8h-11.8zm35.6 0h11.8v11.8h-11.8zm35.5 0h11.8v11.8H292zm35.6 0h11.8v11.8h-11.8zm35.6 0H375v11.8h-11.8zm35.6 0h11.8v11.8h-11.8zm-177.9 35.5h11.8v11.8h-11.8zm35.6 0h11.8v11.8h-11.8zm35.5 0h11.8v11.8H292zm35.6 0h11.8v11.8h-11.8zm35.6 0H375v11.8h-11.8zm35.6 0h11.8v11.8h-11.8zm-177.9 35.6h11.8v11.8h-11.8zm35.6 0h11.8v11.8h-11.8zm35.5 0h11.8v11.8H292zm35.6 0h11.8v11.8h-11.8zm35.6 0H375v11.8h-11.8z"/><path fill="#737281" d="M-45 582.6V314.8h9.8v258h437.9l46.5-46.5V314.8h9.8v215.5l-52.3 52.3z"/><path fill="#737281" d="M399.8 573.7v-50.3h50.3v9.8h-40.5v40.5zM-45 315.7v-88.9h504v88.9H-45zm9.8-9.8h484.4v-69.3H-35.2v69.3z"/><path fill="#737281" d="M4.4 211.4h9.8v59.2H4.4zm395.4 0h9.8v59.2h-9.8z"/></svg>