<svg xmlns="http://www.w3.org/2000/svg" viewBox="-20.7 141 455.4 506.4"><path fill="#737281" d="M3.2 452.8V184.9h407.5v267.9H3.2zm8.7-8.6h390.3V193.5H11.9v250.7z"/><path fill="#737281" d="M32.8 423.2V214.4h348.4v208.8H32.8zm8.6-8.6h331.2V223.1H41.4v191.5z"/><path fill="#09B952" d="M68.3 371.9l53.8-53.8 31.5 31.4 27.1-27 13.5 13.5 52.7-52.7 54.4 54.5 38.3-38.3 6.1 6.1-44.4 44.4-54.4-54.5-52.7 52.7-13.5-13.5-27.1 27-31.5-31.4L74.4 378zm-5-127.9h79.3v8.6H63.3zm0 36h35.6v8.6H63.3z"/><path fill="#737281" d="M-16.7 193.5V145h447.4v48.5H-16.7zm8.6-8.6h430.2v-31.3H-8.1v31.3zm160.9 307.8v-48.5h108.3v48.5H152.8zm8.7-8.6h91.1v-31.3h-91.1v31.3z"/><path fill="#737281" d="M82.43 642.087l118.703-153.2 6.798 5.268-118.703 153.2z"/><path fill="#737281" d="M206.052 494.131l6.799-5.267 118.683 153.219-6.8 5.266z"/><path fill="#737281" d="M202.7 492.4h8.6v151.5h-8.6z"/></svg>