<svg xmlns="http://www.w3.org/2000/svg" viewBox="-45 194.4 504 405.2"><path fill="#737281" d="M-45 599.6V253.7h504v345.9H-45zm9.8-9.8h484.4V263.5H-35.2v326.3z"/><path fill="#737281" d="M112.6 421.8h188.7v9.8H112.6zm264 0h73.5v9.8h-73.5zm-412.7 0h87.4v9.8h-87.4z"/><path fill="#737281" d="M50.4 599.6V253.7h49.3v345.9H50.4zm9.8-9.8h29.7V263.5H60.2v326.3zm254.1 9.8V253.7h49.3v345.9h-49.3zm9.8-9.8h29.7V263.5h-29.7v326.3z"/><path fill="#09B952" d="M101.5 461.2v-9.8h2.3v-49.5H46.3v49.5h2.3v9.8H36.5v-69.1h77v69.1zm263.9 0v-9.8h2.3v-49.5h-57.5v49.5h2.3v9.8h-12v-69.1h77v69.1zm-84.2-206.6v-50.4H132.8v50.4H123v-60.2h168v60.2z"/></svg>