<svg xmlns="http://www.w3.org/2000/svg" viewBox="0 0 164.9 17.6"><path d="M20.3 5.9c.7-.3 1.4-.4 2.3-.4v3.7c-.4 0-.7-.1-.9-.1-.9 0-1.6.2-2.1.7-.5.5-.7 1.2-.7 2.2v5.4h-4.1V5.7h3.9v1.4c.4-.5 1-.9 1.6-1.2zm16.4-.2v11.8h-3.9v-1.3c-.4.5-1 .8-1.6 1.1-.6.2-1.3.4-1.9.4-1.5 0-2.7-.4-3.6-1.3-.9-.9-1.4-2.2-1.4-4V5.7h4.1v5.9c0 .9.2 1.5.5 1.9.3.4.8.6 1.5.6s1.2-.2 1.6-.7c.4-.5.6-1.2.6-2.1V5.7h4.1zm5.2 11.2c-1-.5-1.8-1.2-2.4-2.2s-.9-2-.9-3.1.3-2.2.9-3.1c.6-.9 1.4-1.6 2.4-2.1s2.2-.8 3.5-.8c1.3 0 2.5.3 3.4.9 1 .6 1.7 1.4 2.1 2.4l-3.2 1.6c-.5-1.1-1.3-1.6-2.3-1.6-.7 0-1.3.2-1.8.7-.5.5-.7 1.2-.7 2 0 .9.2 1.6.7 2.1.5.5 1.1.7 1.8.7 1 0 1.8-.5 2.3-1.6l3.2 1.6c-.4 1-1.1 1.8-2.1 2.4-1 .6-2.1.9-3.4.9-1.3-.1-2.5-.3-3.5-.8zm15.9-3.6l-1.2 1.2v2.9h-4.1V1.3h4.1v8.4l4.2-4.1h4.9l-4.9 5 5.3 6.7h-5l-3.3-4zM84 14.5h-6.4l-1.2 2.9H72l6.7-15.2h4.2l6.7 15.2h-4.5L84 14.5zm-1.3-3.2l-2-4.9-2 4.9h4zm8-10h4.1v16.1h-4.1V1.3zm6.7 0h4.1v16.1h-4.1V1.3zm7.1 2.5c-.5-.4-.7-.9-.7-1.6 0-.6.2-1.1.7-1.6.5-.4 1.1-.6 1.8-.6.8 0 1.4.2 1.8.6.5.4.7.9.7 1.5 0 .7-.2 1.2-.7 1.6-.5.4-1.1.6-1.8.6-.8.1-1.4-.1-1.8-.5zm-.3 1.9h4.1v11.8h-4.1V5.7zm16.3 1.1c1 .9 1.5 2.3 1.5 4.1v6.5h-3.8v-1.5c-.6 1.1-1.7 1.7-3.5 1.7-.9 0-1.7-.2-2.4-.5s-1.2-.7-1.5-1.3c-.3-.5-.5-1.2-.5-1.9 0-1.1.4-2 1.3-2.6.9-.6 2.2-.9 3.9-.9h2.3c-.1-1.2-.9-1.9-2.5-1.9-.6 0-1.1.1-1.7.3-.6.2-1.1.4-1.5.7l-1.4-2.8c.7-.4 1.4-.8 2.4-1 .9-.2 1.9-.4 2.8-.4 2.1.2 3.6.6 4.6 1.5zm-3.4 7.9c.4-.2.6-.6.8-1v-1h-1.8c-1.2 0-1.8.4-1.8 1.2 0 .4.1.7.4.9.3.2.7.3 1.1.3s1-.2 1.3-.4zm18.7-7.9c.9.9 1.3 2.2 1.3 3.9v6.7H133v-6.1c0-1.6-.6-2.4-1.9-2.4-.7 0-1.3.2-1.7.7-.4.5-.6 1.2-.6 2.1v5.7h-4.1V5.7h3.9V7c.5-.5 1-.8 1.6-1.1.6-.3 1.3-.4 2.1-.4 1.5 0 2.6.4 3.5 1.3zm6.6 10.1c-1-.5-1.8-1.2-2.4-2.2-.6-.9-.9-2-.9-3.1s.3-2.2.9-3.1c.6-.9 1.4-1.6 2.4-2.1s2.2-.8 3.5-.8c1.3 0 2.5.3 3.4.9 1 .6 1.7 1.4 2.1 2.4l-3.2 1.6c-.5-1.1-1.3-1.6-2.3-1.6-.7 0-1.3.2-1.8.7-.5.5-.7 1.2-.7 2 0 .9.2 1.6.7 2.1.5.5 1.1.7 1.8.7 1 0 1.8-.5 2.3-1.6l3.2 1.6c-.4 1-1.1 1.8-2.1 2.4-1 .6-2.1.9-3.4.9-1.3-.1-2.4-.3-3.5-.8zm22.4-4.3h-8.5c.2.6.5 1.1 1 1.4.5.3 1.1.5 1.9.5.6 0 1.1-.1 1.5-.2.4-.2.8-.4 1.2-.8l2.2 2.3c-1.1 1.3-2.8 1.9-5 1.9-1.4 0-2.6-.3-3.6-.8s-1.8-1.2-2.4-2.2c-.6-.9-.9-2-.9-3.1 0-1.2.3-2.2.8-3.1s1.3-1.6 2.3-2.2c1-.5 2.1-.8 3.3-.8 1.2 0 2.2.2 3.2.7 1 .5 1.7 1.2 2.3 2.1s.8 2 .8 3.3c0 0 0 .4-.1 1zM157 9c-.4.4-.7.9-.8 1.5h4.8c-.1-.6-.4-1.1-.8-1.5s-1-.5-1.6-.5c-.6-.1-1.2.1-1.6.5z"/><path fill="#09BA52" d="M4.7 5.7H1.6v4.2L4.7 13z"/><path d="M0 2.3v3.4l3.1-3.1 2.9 3h.3V4.1h6.1V2.3z"/><path d="M6.3 5.6h1.4v10.5L9 17.3V5.7h3.4V4.1H6.3z"/><path d="M4.7 5.7V13l1.6 1.7V5.6H6l.1.1z"/><path d="M7.7 16.1V5.6H6.3v9.1z"/><path fill="#09BA52" d="M0 5.7h1.6zm1.6-.1H6l-2.9-3L0 5.7h1.6z"/><path fill="#09BA52" d="M1.6 5.7h4.5L6 5.6H1.6z"/></svg>