<svg xmlns="http://www.w3.org/2000/svg" viewBox="0 0 204.6 39.2"><path d="M32.3 0H0v8.8h.1L7.9 1l7.7 7.7.3.3h-3.8v19l4.3 4.3L20 36l3.3 3.3V8.8h9"/><path fill="#09BA52" d="M15.6 8.6L7.9 1 .1 8.8l-.1.1h4.1v10.9l8 8.1v-19h3.8z"/><path d="M58.6 5c.6-.2 1.2-.3 1.9-.3v3.1c-.3 0-.6-.1-.8-.1-.7 0-1.3.2-1.7.6-.4.4-.6 1-.6 1.8v4.4H54V4.8h3.2V6c.4-.4.9-.8 1.4-1zm13.6-.2v9.7H69v-1c-.4.4-.8.7-1.3.9-.5.2-1 .3-1.6.3-1.3 0-2.2-.4-3-1.1-.7-.7-1.1-1.8-1.1-3.3V4.8h3.4v4.9c0 .7.1 1.3.4 1.6.3.3.7.5 1.2.5s1-.2 1.3-.6c.3-.4.5-.9.5-1.7V4.8h3.4zm4.2 9.2c-.8-.4-1.5-1-2-1.8s-.7-1.6-.7-2.6.2-1.8.7-2.6c.5-.8 1.1-1.3 2-1.8.8-.4 1.8-.6 2.9-.6 1.1 0 2 .2 2.8.7.8.5 1.4 1.1 1.7 2l-2.6 1.3c-.4-.9-1.1-1.3-1.9-1.3-.6 0-1.1.2-1.5.6-.4.4-.6 1-.6 1.7s.2 1.3.6 1.7c.4.4.9.6 1.5.6.8 0 1.5-.4 1.9-1.3l2.6 1.3c-.3.8-.9 1.5-1.7 2-.8.5-1.7.7-2.8.7-1.1.1-2-.1-2.9-.6zm13.1-2.9l-1 1v2.4h-3.4V1.3h3.4v7L92 4.9h4L92 9l4.4 5.5h-4.1l-2.8-3.4zm21.6 1h-5.3l-1 2.4h-3.6L106.7 2h3.5l5.5 12.5H112l-.9-2.4zM110 9.5l-1.6-4-1.6 4h3.2zm6.6-8.2h3.4v13.3h-3.4V1.3zm5.6 0h3.4v13.3h-3.4V1.3zm5.8 2c-.4-.3-.6-.8-.6-1.3s.2-.9.6-1.3c.4-.3.9-.5 1.5-.5s1.1.2 1.5.5c.4.3.6.7.6 1.3 0 .5-.2 1-.6 1.3-.4.4-.9.5-1.5.5-.7 0-1.2-.2-1.5-.5zm-.2 1.5h3.4v9.7h-3.4V4.8zm13.4 1c.8.7 1.3 1.9 1.3 3.4v5.4h-3.2v-1.3c-.5.9-1.4 1.4-2.9 1.4-.8 0-1.4-.1-1.9-.4-.5-.3-1-.6-1.2-1.1-.3-.4-.4-1-.4-1.5 0-.9.4-1.6 1.1-2.1.7-.5 1.8-.8 3.3-.8h1.9c-.1-1-.7-1.5-2.1-1.5-.5 0-.9.1-1.4.2-.5.1-.9.4-1.2.6l-1.1-2.3c.5-.4 1.2-.6 2-.8.8-.2 1.5-.3 2.3-.3 1.4 0 2.6.3 3.5 1.1zm-2.8 6.5c.3-.2.5-.5.6-.8v-.8h-1.5c-1 0-1.5.3-1.5 1 0 .3.1.5.3.7.2.2.5.3.9.3.5-.2.9-.3 1.2-.4zm15.4-6.5c.7.7 1.1 1.8 1.1 3.2v5.5h-3.4v-5c0-1.3-.5-2-1.6-2-.6 0-1.1.2-1.4.6-.4.4-.5 1-.5 1.7v4.7h-3.4V4.8h3.2v1.1c.4-.4.8-.7 1.4-.9.5-.2 1.1-.3 1.7-.3 1.2 0 2.2.3 2.9 1.1zm5.4 8.2c-.8-.4-1.5-1-2-1.8s-.7-1.6-.7-2.6.2-1.8.7-2.6c.5-.8 1.1-1.3 2-1.8.8-.4 1.8-.6 2.9-.6 1.1 0 2 .2 2.8.7.8.5 1.4 1.1 1.7 2L164 8.7c-.4-.9-1.1-1.3-1.9-1.3-.6 0-1.1.2-1.5.6-.4.4-.6 1-.6 1.7s.2 1.3.6 1.7c.4.4.9.6 1.5.6.8 0 1.5-.4 1.9-1.3l2.6 1.3c-.3.8-.9 1.5-1.7 2-.8.5-1.7.7-2.8.7-1.1 0-2-.2-2.9-.7zm18.5-3.5h-7c.1.5.4.9.8 1.2.4.3.9.4 1.5.4.5 0 .9-.1 1.2-.2.3-.1.7-.3 1-.6l1.8 1.9c-.9 1-2.3 1.6-4.1 1.6-1.1 0-2.1-.2-3-.6-.9-.4-1.5-1-2-1.8s-.7-1.6-.7-2.6.2-1.8.7-2.6 1.1-1.3 1.9-1.8c.8-.4 1.7-.6 2.7-.6 1 0 1.8.2 2.6.6.8.4 1.4 1 1.9 1.7s.7 1.7.7 2.7v.7zm-6.5-3c-.4.3-.6.7-.7 1.2h4c-.1-.5-.3-.9-.7-1.2s-.8-.4-1.3-.4-.9.1-1.3.4zM45.7 4.8v6l1.4 1.4 1.1 1.2 1 1.1V4.8h2.9V2H43v2.8h2.7zm-1.9 17.4h3.8v.5h-3.2v1.7H46c.6 0 1.1.1 1.4.4.3.2.5.6.5 1.1 0 .5-.2.9-.5 1.1-.3.3-.8.4-1.5.4h-2.1v-5.2zm2.1 4.7c.5 0 .8-.1 1.1-.3.2-.2.4-.4.4-.8s-.1-.6-.4-.8c-.2-.2-.6-.3-1.1-.3h-1.6v2.1h1.6zm6.5-1.3h-3.2c0 .4.2.7.5 1 .3.2.6.4 1.1.4.2 0 .5 0 .7-.1.2-.1.4-.2.5-.4l.3.3c-.2.2-.4.4-.6.5-.3.1-.5.2-.8.2-.4 0-.7-.1-1.1-.3-.3-.2-.5-.4-.7-.7-.2-.3-.3-.6-.3-1s.1-.7.2-1c.2-.3.4-.5.7-.7.3-.2.6-.2 1-.2s.7.1 1 .2c.3.2.5.4.7.7.2.3.2.6.2 1l-.2.1zm-2.8-1.4c-.3.2-.4.5-.4.9h2.7c0-.4-.2-.7-.4-.9s-.6-.4-.9-.4c-.5.1-.8.2-1 .4zm4.5 2.9c-.3-.2-.5-.4-.7-.7-.2-.3-.3-.6-.3-1s.1-.7.3-1c.2-.3.4-.5.7-.7.3-.2.6-.2 1-.2.3 0 .6.1.9.2s.5.3.6.6l-.4.3c-.1-.2-.3-.3-.5-.4-.2-.1-.4-.1-.6-.1-.3 0-.5.1-.8.2-.2.1-.4.3-.5.5-.1.2-.2.5-.2.8 0 .3.1.6.2.8.1.2.3.4.5.5.2.1.5.2.8.2.2 0 .4 0 .6-.1.2-.1.4-.2.5-.4l.4.3-.6.6c-.3.1-.6.2-.9.2-.4-.3-.7-.4-1-.6zm7-3.6v3.9h-.5V24h-2.4v3.4h-.5v-3.9h3.4zm4.6 0v3.9h-.5V24h-1.8l-.1 1c0 .8-.1 1.4-.3 1.8-.1.4-.4.6-.8.6-.1 0-.2 0-.4-.1v-.4h.2c.2 0 .4-.1.5-.3.1-.2.2-.4.2-.7 0-.3.1-.6.1-1.1l.1-1.4h2.8zm4 .3c.3.3.4.6.4 1.1v2.4h-.5v-.6c-.1.2-.3.4-.5.5-.2.1-.5.2-.8.2-.4 0-.8-.1-1-.3-.3-.2-.4-.5-.4-.8 0-.3.1-.6.4-.8.2-.2.6-.3 1.1-.3h1.2V25c0-.3-.1-.6-.3-.8-.2-.2-.5-.3-.8-.3-.2 0-.5 0-.7.1l-.6.3-.2-.3c.2-.2.4-.3.7-.4s.6-.1.9-.1c.5-.1.8.1 1.1.3zm-.6 2.9c.2-.1.4-.3.5-.6v-.6h-1.2c-.7 0-1 .2-1 .7 0 .2.1.4.3.5.2.1.4.2.7.2.3 0 .5 0 .7-.2zm5.1-2.8h-1.5v3.4h-.5v-3.4h-1.5v-.5h3.4v.5zm.8-.4h.5v1.7h2.4v-1.7h.5v3.9h-.5v-1.7h-2.4v1.7H75v-3.9zm7.7 1.6c.3.2.4.5.4.9s-.1.7-.4.9c-.3.2-.7.3-1.2.3H80v-3.9h.5v1.4h1.1c.4.1.8.2 1.1.4zm-.5 1.6c.2-.1.3-.4.3-.7 0-.3-.1-.5-.3-.6-.2-.1-.5-.2-.8-.2h-1v1.7h1c.4 0 .7 0 .8-.2zm1.5-3.2h.5v3.9h-.5v-3.9zm2 0h.5v3.1l2.6-3.1h.5v3.9h-.5v-3.1l-2.6 3.1h-.5v-3.9zm1-.8c-.2-.2-.3-.4-.3-.7h.4c0 .2.1.3.2.5.1.1.3.2.5.2s.4-.1.5-.2c.1-.1.2-.3.2-.5h.4c0 .3-.1.5-.3.7-.2.2-.5.2-.8.2-.4 0-.6-.1-.8-.2zm6.6 4.4c-.3-.2-.5-.4-.7-.7-.2-.3-.3-.6-.3-1s.1-.7.3-1c.2-.3.4-.5.7-.7.3-.2.6-.2 1-.2.3 0 .6.1.9.2.3.1.5.3.6.6l-.4.3c-.1-.2-.3-.3-.5-.4-.2-.1-.4-.1-.6-.1-.3 0-.5.1-.8.2-.2.1-.4.3-.5.5-.1.2-.2.5-.2.8 0 .3.1.6.2.8.1.2.3.4.5.5.2.1.5.2.8.2.2 0 .4 0 .6-.1.2-.1.4-.2.5-.4l.4.3-.6.6c-.3.1-.6.2-.9.2-.4-.3-.7-.4-1-.6zm6.8-1.5h-3.2c0 .4.2.7.5 1 .3.2.6.4 1.1.4.2 0 .5 0 .7-.1.2-.1.4-.2.5-.4l.3.3c-.2.2-.4.4-.6.5-.3.1-.5.2-.8.2-.4 0-.7-.1-1.1-.3-.3-.2-.5-.4-.7-.7-.2-.3-.3-.6-.3-1s.1-.7.2-1c.2-.3.4-.5.7-.7s.6-.2 1-.2.7.1 1 .2c.3.2.5.4.7.7.2.3.2.6.2 1l-.2.1zm-2.8-1.4c-.3.2-.4.5-.4.9h2.7c0-.4-.2-.7-.4-.9s-.6-.4-.9-.4c-.4.1-.7.2-1 .4zm6.9-.5c.3.2.5.4.7.7s.2.6.2 1-.1.7-.2 1c-.2.3-.4.5-.7.7-.3.2-.6.2-1 .2-.3 0-.6-.1-.8-.2-.3-.1-.5-.3-.6-.6v2.2h-.5v-5.3h.5v.8c.2-.3.4-.4.6-.6.3-.1.5-.2.9-.2.3 0 .6.1.9.3zm-.2 3c.2-.1.4-.3.5-.5.1-.2.2-.5.2-.8 0-.3-.1-.6-.2-.8-.1-.2-.3-.4-.5-.5-.2-.1-.5-.2-.7-.2-.3 0-.5.1-.7.2-.2.1-.4.3-.5.5-.1.2-.2.5-.2.8 0 .3.1.6.2.8.1.2.3.4.5.5.2.1.5.2.7.2.2 0 .4-.1.7-.2zm5.5-.4c0 .3-.1.6-.4.8-.2.2-.6.3-1.1.3h-1.8v-3.9h1.7c.4 0 .8.1 1 .3.2.2.4.4.4.7 0 .2-.1.4-.2.5-.1.1-.3.3-.5.3.7.1.9.5.9 1zm-2.7-1.1h1.2c.3 0 .5-.1.7-.2.2-.1.2-.3.2-.5s-.1-.4-.2-.5c-.2-.1-.4-.2-.7-.2h-1.2v1.4zm2 1.5c.2-.1.2-.3.2-.5s-.1-.4-.2-.5c-.2-.1-.4-.2-.7-.2h-1.3v1.3h1.2c.4.1.6.1.8-.1zm2-3.2h.5v3.1l2.6-3.1h.5v3.9h-.5v-3.1l-2.6 3.1h-.5v-3.9zm5.6 3.6c-.3-.2-.5-.4-.7-.7-.2-.3-.3-.6-.3-1s.1-.7.3-1c.2-.3.4-.5.7-.7.3-.2.6-.2 1-.2.3 0 .6.1.9.2s.5.3.6.6l-.4.3c-.1-.2-.3-.3-.5-.4-.2-.1-.4-.1-.6-.1-.3 0-.5.1-.8.2-.2.1-.4.3-.5.5-.1.2-.2.5-.2.8 0 .3.1.6.2.8.1.2.3.4.5.5.2.1.5.2.8.2.2 0 .4 0 .6-.1.2-.1.4-.2.5-.4l.4.3-.6.6c-.3.1-.6.2-.9.2-.4-.3-.7-.4-1-.6zm8.9-3.6v3.9h-.5V24h-2.4v3.4h-.5v-3.9h3.4zm2.1 3.6c-.3-.2-.5-.4-.7-.7-.2-.3-.3-.6-.3-1s.1-.7.3-1c.2-.3.4-.5.7-.7.3-.2.6-.2 1-.2s.7.1 1 .2c.3.2.5.4.7.7.2.3.3.6.3 1s-.1.7-.3 1-.4.5-.7.7c-.3.2-.6.3-1 .3s-.7-.1-1-.3zm1.7-.4c.2-.1.4-.3.5-.5.1-.2.2-.5.2-.8 0-.3-.1-.6-.2-.8-.1-.2-.3-.4-.5-.5-.2-.1-.5-.2-.7-.2s-.5.1-.7.2c-.2.1-.4.3-.5.5-.1.2-.2.5-.2.8 0 .3.1.6.2.8.1.2.3.4.5.5.2.1.5.2.7.2s.5-.1.7-.2zm7.8-3.2v3.9h-.5V24H134v3.4h-.5v-3.9h3.4zm2 3.6c-.3-.2-.5-.4-.7-.7-.2-.3-.3-.6-.3-1s.1-.7.3-1c.2-.3.4-.5.7-.7.3-.2.6-.2 1-.2s.7.1 1 .2c.3.2.5.4.7.7.2.3.3.6.3 1s-.1.7-.3 1-.4.5-.7.7c-.3.2-.6.3-1 .3s-.7-.1-1-.3zm1.8-.4c.2-.1.4-.3.5-.5.1-.2.2-.5.2-.8 0-.3-.1-.6-.2-.8-.1-.2-.3-.4-.5-.5-.2-.1-.5-.2-.7-.2s-.5.1-.7.2c-.2.1-.4.3-.5.5-.1.2-.2.5-.2.8 0 .3.1.6.2.8.1.2.3.4.5.5.2.1.5.2.7.2s.5-.1.7-.2zm6.1.2v1.4h-.5v-.9h-3.5v.9h-.5v-1.4h.2c.3 0 .4-.2.5-.6.1-.4.2-.9.2-1.5l.1-1.3h2.8v3.4h.7zm-3.2-.8c-.1.4-.2.6-.4.7h2.4v-2.9h-1.9v.9c0 .5 0 1-.1 1.3zm7-2.3c.3.2.5.4.7.7.2.3.2.6.2 1s-.1.7-.2 1c-.2.3-.4.5-.7.7-.3.2-.6.2-1 .2-.6 0-1.1-.2-1.5-.7-.4-.4-.5-1.1-.5-1.9 0-.8.2-1.5.5-1.9.3-.4.8-.7 1.5-.9l1.7-.4.1.5-1.6.4c-.6.1-1 .3-1.2.6-.3.3-.4.8-.4 1.4.2-.3.4-.5.7-.7.3-.2.6-.3 1-.3.1.1.4.1.7.3zm-.3 2.9c.2-.1.4-.3.5-.5.1-.2.2-.5.2-.8 0-.3-.1-.5-.2-.7-.1-.2-.3-.4-.5-.5-.2-.1-.5-.2-.7-.2s-.5.1-.7.2c-.2.1-.4.3-.5.5-.1.2-.2.5-.2.7 0 .3.1.5.2.8.1.2.3.4.5.5.2.1.5.2.7.2.2 0 .5 0 .7-.2zm2.9.4c-.3-.2-.5-.4-.7-.7-.2-.3-.3-.6-.3-1s.1-.7.3-1c.2-.3.4-.5.7-.7.3-.2.6-.2 1-.2s.7.1 1 .2c.3.2.5.4.7.7.2.3.3.6.3 1s-.1.7-.3 1-.4.5-.7.7c-.3.2-.6.3-1 .3s-.7-.1-1-.3zm1.7-.4c.2-.1.4-.3.5-.5.1-.2.2-.5.2-.8 0-.3-.1-.6-.2-.8-.1-.2-.3-.4-.5-.5-.2-.1-.5-.2-.7-.2s-.5.1-.7.2c-.2.1-.4.3-.5.5-.1.2-.2.5-.2.8 0 .3.1.6.2.8.1.2.3.4.5.5.2.1.5.2.7.2s.5-.1.7-.2zm5.4-3c.3.2.5.4.7.7.2.3.2.6.2 1s-.1.7-.2 1c-.2.3-.4.5-.7.7-.3.2-.6.2-1 .2-.3 0-.6-.1-.8-.2-.3-.1-.5-.3-.6-.6v2.2h-.5v-5.3h.5v.8c.2-.3.4-.4.6-.6.3-.1.5-.2.9-.2.2 0 .6.1.9.3zm-.3 3c.2-.1.4-.3.5-.5.1-.2.2-.5.2-.8 0-.3-.1-.6-.2-.8-.1-.2-.3-.4-.5-.5-.2-.1-.5-.2-.7-.2-.3 0-.5.1-.7.2-.2.1-.4.3-.5.5-.1.2-.2.5-.2.8 0 .3.1.6.2.8.1.2.3.4.5.5.2.1.5.2.7.2.2 0 .4-.1.7-.2zm5.5-3.2l-1.9 4.3c-.2.4-.3.6-.5.8-.2.2-.5.2-.7.2-.2 0-.4 0-.5-.1-.2-.1-.3-.1-.4-.3l.2-.4c.2.2.4.3.7.3.2 0 .3 0 .5-.1.1-.1.2-.3.3-.5l.2-.4-1.7-3.9h.5l1.5 3.3 1.5-3.3h.3zm5.9 0v3.9h-.5V24H169l-.1 1c0 .8-.1 1.4-.3 1.8-.1.4-.4.6-.8.6-.1 0-.2 0-.4-.1v-.4h.2c.2 0 .4-.1.5-.3.1-.2.2-.4.2-.7s.1-.6.1-1.1l.1-1.4h2.9zm1.5 0h.5v3.1l2.6-3.1h.5v3.9h-.5v-3.1l-2.6 3.1h-.5v-3.9zm7.4 2.1c.1.2.2.3.2.6 0 .2-.1.4-.2.6-.2.2-.4.3-.6.4-.3.1-.6.1-.9.1-.3 0-.6 0-.8-.1-.3-.1-.5-.2-.7-.4l.2-.4.6.3c.2.1.5.1.7.1.4 0 .6-.1.9-.2.2-.1.3-.3.3-.5s-.1-.4-.3-.5c-.2-.1-.4-.2-.8-.2h-.7V25h.6c.3 0 .5-.1.7-.2.2-.1.3-.3.3-.4 0-.2-.1-.4-.3-.5-.2-.1-.5-.2-.8-.2-.4 0-.8.1-1.2.3l-.1-.4c.5-.2.9-.4 1.4-.4.3 0 .6 0 .8.1.2.1.4.2.6.4.1.2.2.3.2.5s-.1.4-.2.5-.3.3-.5.3c.3.4.5.5.6.6zm1.4-2.1h.5v3.1l2.6-3.1h.5v3.9h-.5v-3.1l-2.6 3.1h-.5v-3.9zm5.1 0h.5v1.7h2.4v-1.7h.5v3.9h-.5v-1.7h-2.4v1.7h-.5v-3.9zm7.7.4h-2.2v3.4h-.5v-3.9h2.7v.5zm3.2-.1c.3.3.4.6.4 1.1v2.4h-.5v-.6c-.1.2-.3.4-.5.5-.2.1-.5.2-.8.2-.4 0-.8-.1-1-.3-.3-.2-.4-.5-.4-.8 0-.3.1-.6.4-.8s.6-.3 1.1-.3h1.2V25c0-.3-.1-.6-.3-.8-.2-.2-.5-.3-.8-.3-.2 0-.5 0-.7.1l-.6.3-.2-.3c.2-.2.4-.3.7-.4s.6-.1.9-.1c.5-.1.9.1 1.1.3zm-.6 2.9c.2-.1.4-.3.5-.6v-.6h-1.2c-.7 0-1 .2-1 .7 0 .2.1.4.3.5.2.1.4.2.7.2.3 0 .5 0 .7-.2zM47.4 36.6V38h-.5v-.9h-3.5v.9H43v-1.4h.2c.3 0 .4-.2.5-.6.1-.4.2-.9.2-1.5l.1-1.3h2.8v3.4h.6zm-3.2-.7c-.1.4-.2.6-.4.7h2.4v-2.9h-1.9v.9c.1.5 0 1-.1 1.3zm7.4-2.7v3.9h-.5v-3.4h-1.8l-.1 1c0 .8-.1 1.4-.3 1.8-.1.4-.4.6-.8.6-.1 0-.2 0-.4-.1v-.4h.2c.2 0 .4-.1.5-.3.1-.2.2-.4.2-.7 0-.3.1-.6.1-1.1l.1-1.4h2.8zm4.4 0v3.9h-.5v-1.3h-1.3l-.9 1.3h-.6l1-1.4c-.3-.1-.5-.2-.7-.4-.2-.2-.2-.5-.2-.8 0-.4.1-.8.4-1 .3-.2.7-.3 1.2-.3H56zm-1.6 2.2h1.2v-1.7h-1.1c-.8 0-1.1.3-1.1.9-.1.6.3.8 1 .8zm7.8-1.7H60v3.4h-.5v-3.9h2.7v.5zm3.7-.2c.3.2.5.4.7.7s.2.6.2 1-.1.7-.2 1c-.2.3-.4.5-.7.7-.3.2-.6.2-1 .2-.3 0-.6-.1-.8-.2-.3-.1-.5-.3-.6-.6v2.2H63v-5.3h.5v.8c.2-.3.4-.4.6-.6.3-.1.5-.2.9-.2.3 0 .6.1.9.3zm-.3 3c.2-.1.4-.3.5-.5.1-.2.2-.5.2-.8 0-.3-.1-.6-.2-.8-.1-.2-.3-.4-.5-.5-.2-.1-.5-.2-.7-.2-.3 0-.5.1-.7.2-.2.1-.4.3-.5.5-.1.2-.2.5-.2.8 0 .3.1.6.2.8.1.2.3.4.5.5.2.1.5.2.7.2.2 0 .5-.1.7-.2zm5.5-3.3l-1.9 4.3c-.2.4-.3.6-.5.8-.2.2-.5.2-.7.2-.2 0-.4 0-.5-.1-.2-.1-.3-.1-.4-.3l.2-.4c.2.2.4.3.7.3.2 0 .3 0 .5-.1.1-.1.2-.3.3-.5l.2-.4-1.7-3.9h.5l1.5 3.3 1.5-3.3h.3zm3.2 2.2c.1.2.2.3.2.6 0 .2-.1.4-.2.6s-.3.3-.6.4c-.3.1-.6.1-.9.1-.3 0-.6 0-.8-.1-.3-.1-.5-.2-.7-.4l.2-.4.6.3c.2.1.5.1.7.1.4 0 .6-.1.9-.2.2-.1.3-.3.3-.5s-.1-.4-.3-.5c-.2-.1-.4-.2-.8-.2h-.7v-.4h.8c.3 0 .5-.1.7-.2.2-.1.3-.3.3-.4 0-.2-.1-.4-.3-.5-.2-.1-.5-.2-.8-.2-.4 0-.8.1-1.2.3l-.1-.4c.5-.2.9-.4 1.4-.4.3 0 .6 0 .8.1.2.1.4.2.6.4.1.2.2.3.2.5s-.1.4-.2.5c-.1.2-.3.3-.5.3.1.4.3.5.4.6zm2 1.5c-.3-.2-.5-.4-.7-.7-.2-.3-.3-.6-.3-1s.1-.7.3-1c.2-.3.4-.5.7-.7.3-.2.6-.2 1-.2s.7.1 1 .2c.3.2.5.4.7.7.2.3.3.6.3 1s-.1.7-.3 1c-.2.3-.4.5-.7.7-.3.2-.6.3-1 .3-.3-.1-.7-.1-1-.3zm1.8-.4c.2-.1.4-.3.5-.5.1-.2.2-.5.2-.8 0-.3-.1-.6-.2-.8s-.3-.4-.5-.5c-.2-.1-.5-.2-.7-.2s-.5.1-.7.2c-.2.1-.4.3-.5.5-.1.2-.2.5-.2.8 0 .3.1.6.2.8.1.2.3.4.5.5.2.1.5.2.7.2s.5-.1.7-.2zm5.6-.4c0 .3-.1.6-.4.8-.2.2-.6.3-1.1.3h-1.8v-3.9h1.7c.4 0 .8.1 1 .3.2.2.4.4.4.7 0 .2-.1.4-.2.5-.1.1-.3.3-.5.3.6.1.9.4.9 1zM80.9 35h1.2c.3 0 .5-.1.7-.2.2-.1.2-.3.2-.5s-.1-.4-.2-.5c-.2-.1-.4-.2-.7-.2h-1.2V35zm2 1.5c.2-.1.2-.3.2-.5s-.1-.4-.2-.5c-.2-.1-.4-.2-.7-.2h-1.3v1.3h1.2c.4.1.6 0 .8-.1zm4.7-1.6c.3.2.4.5.4.9s-.1.7-.4.9c-.3.2-.7.3-1.2.3h-1.5v-3.9h.5v1.4h1.1c.5.1.9.2 1.1.4zm-.4 1.6c.2-.1.3-.4.3-.7 0-.3-.1-.5-.3-.6-.2-.1-.5-.2-.8-.2h-1v1.7h1c.3 0 .6-.1.8-.2zm1.4-3.3h.5v3.9h-.5v-3.9zm4.5 3.9l-1.2-1.6-1.2 1.6H90l1.5-2-1.5-1.9h.6l1.2 1.5 1.2-1.5h.6l-1.5 1.9 1.5 2h-.5zm5.8-3.5c.3.3.4.6.4 1.1v2.4h-.5v-.6c-.1.2-.3.4-.5.5-.2.1-.5.2-.8.2-.4 0-.8-.1-1-.3-.3-.2-.4-.5-.4-.8 0-.3.1-.6.4-.8.2-.2.6-.3 1.1-.3h1.2v-.2c0-.3-.1-.6-.3-.8-.2-.2-.5-.3-.8-.3-.2 0-.5 0-.7.1l-.6.3-.2-.4c.2-.2.4-.3.7-.4.3-.1.6-.1.9-.1.5 0 .8.1 1.1.4zm-.6 2.9c.2-.1.4-.3.5-.6v-.6h-1.2c-.7 0-1 .2-1 .7 0 .2.1.4.3.5.2.1.4.2.7.2.3 0 .5 0 .7-.2zm5.6-.4c0 .3-.1.6-.4.8-.2.2-.6.3-1.1.3h-1.8v-3.9h1.7c.4 0 .8.1 1 .3.2.2.4.4.4.7 0 .2-.1.4-.2.5-.1.1-.3.3-.5.3.7.1.9.4.9 1zm-2.7-1.1h1.2c.3 0 .5-.1.7-.2.2-.1.2-.3.2-.5s-.1-.4-.2-.5c-.2-.1-.4-.2-.7-.2h-1.2V35zm2 1.5c.2-.1.2-.3.2-.5s-.1-.4-.2-.5c-.2-.1-.4-.2-.7-.2h-1.3v1.3h1.2c.4.1.6 0 .8-.1zm4.7-2.8h-1.5v3.4h-.5v-3.4h-1.5v-.5h3.4v.5zm1.1 3.2c-.3-.2-.5-.4-.7-.7-.2-.3-.3-.6-.3-1s.1-.7.3-1c.2-.3.4-.5.7-.7.3-.2.6-.2 1-.2s.7.1 1 .2c.3.2.5.4.7.7.2.3.3.6.3 1s-.1.7-.3 1-.4.5-.7.7c-.3.2-.6.3-1 .3-.3-.1-.7-.1-1-.3zm1.8-.4c.2-.1.4-.3.5-.5.1-.2.2-.5.2-.8 0-.3-.1-.6-.2-.8-.1-.2-.3-.4-.5-.5-.2-.1-.5-.2-.7-.2-.3 0-.5.1-.7.2-.2.1-.4.3-.5.5-.1.2-.2.5-.2.8 0 .3.1.6.2.8.1.2.3.4.5.5.2.1.5.2.7.2.2 0 .5-.1.7-.2zm6.6-3.3v3.9h-.4V34l-1.6 2.6h-.2l-1.6-2.6v3.1h-.5v-3.9h.5l1.6 2.8 1.7-2.8h.5zm2.1 3.7c-.3-.2-.5-.4-.7-.7-.2-.3-.3-.6-.3-1s.1-.7.3-1c.2-.3.4-.5.7-.7.3-.2.6-.2 1-.2s.7.1 1 .2c.3.2.5.4.7.7.2.3.3.6.3 1s-.1.7-.3 1-.4.5-.7.7c-.3.2-.6.3-1 .3-.4-.1-.7-.1-1-.3zm1.8-.4c.2-.1.4-.3.5-.5.1-.2.2-.5.2-.8 0-.3-.1-.6-.2-.8s-.3-.4-.5-.5c-.2-.1-.5-.2-.7-.2s-.5.1-.7.2c-.2.1-.4.3-.5.5-.1.2-.2.5-.2.8 0 .3.1.6.2.8.1.2.3.4.5.5.2.1.5.2.7.2s.4-.1.7-.2zm5.1-2.9c.3.2.5.4.7.7.2.3.2.6.2 1s-.1.7-.2 1c-.2.3-.4.5-.7.7-.3.2-.6.2-1 .2-.6 0-1.1-.2-1.5-.7-.4-.4-.5-1.1-.5-1.9 0-.8.2-1.5.5-1.9.3-.4.8-.7 1.5-.9l1.7-.4.1.5-1.6.4c-.6.1-1 .3-1.2.6-.3.3-.4.8-.4 1.4.2-.3.4-.5.7-.7.3-.2.6-.3 1-.3.1 0 .4.1.7.3zm-.3 2.9c.2-.1.4-.3.5-.5.1-.2.2-.5.2-.8 0-.3-.1-.5-.2-.7-.1-.2-.3-.4-.5-.5-.2-.1-.5-.2-.7-.2s-.5.1-.7.2c-.2.1-.4.3-.5.5-.1.2-.2.5-.2.7 0 .3.1.5.2.8.1.2.3.4.5.5.2.1.5.2.7.2.3 0 .5 0 .7-.2zm2.3-3.3h.5v3.1l2.6-3.1h.5v3.9h-.5V34l-2.6 3.1h-.5v-3.9zm8.2 0v3.9h-.5v-3.4h-1.8l-.1 1c0 .8-.1 1.4-.3 1.8-.1.4-.4.6-.8.6-.1 0-.2 0-.4-.1v-.4h.2c.2 0 .4-.1.5-.3.1-.2.2-.4.2-.7s.1-.6.1-1.1l.1-1.4h2.8zm4.9 2.1h-3.2c0 .4.2.7.5 1 .3.2.6.4 1.1.4.2 0 .5 0 .7-.1.2-.1.4-.2.5-.4l.3.3c-.2.2-.4.4-.6.5-.3.1-.5.2-.8.2-.4 0-.7-.1-1.1-.3-.3-.2-.5-.4-.7-.7-.2-.3-.3-.6-.3-1s.1-.7.2-1c.2-.3.4-.5.7-.7s.6-.2 1-.2.7.1 1 .2c.3.2.5.4.7.7.2.3.2.6.2 1l-.2.1zm-2.8-1.3c-.3.2-.4.5-.4.9h2.7c0-.4-.2-.7-.4-.9-.3-.2-.6-.4-.9-.4-.4.1-.8.2-1 .4zm4-.8h.5v3.1l2.6-3.1h.5v3.9h-.5V34l-2.6 3.1h-.5v-3.9zm.9-.8c-.2-.2-.3-.4-.3-.7h.4c0 .2.1.3.2.5.1.1.3.2.5.2s.4-.1.5-.2c.1-.1.2-.3.2-.5h.4c0 .3-.1.5-.3.7-.2.2-.5.2-.8.2-.3.1-.6 0-.8-.2zm6 .8h.5v3.1l2.6-3.1h.5v3.9h-.5V34l-2.6 3.1h-.5v-3.9zm7.6 3.7c-.3-.2-.5-.4-.7-.7-.2-.3-.3-.6-.3-1s.1-.7.3-1c.2-.3.4-.5.7-.7.3-.2.6-.2 1-.2.3 0 .6.1.9.2.3.1.5.3.6.6l-.4.3c-.1-.2-.3-.3-.5-.4-.2-.1-.4-.1-.6-.1-.3 0-.5.1-.8.2-.2.1-.4.3-.5.5-.1.2-.2.5-.2.8 0 .3.1.6.2.8.1.2.3.4.5.5.2.1.5.2.8.2.2 0 .4 0 .6-.1.2-.1.4-.2.5-.4l.4.3-.6.6c-.3.1-.6.2-.9.2-.4-.4-.7-.4-1-.6zm7-3.7v3.9h-.5v-3.4h-2.4v3.4h-.5v-3.9h3.4zm4.9 2.1h-3.2c0 .4.2.7.5 1 .3.2.6.4 1.1.4.2 0 .5 0 .7-.1.2-.1.4-.2.5-.4l.3.3c-.2.2-.4.4-.6.5-.3.1-.5.2-.8.2-.4 0-.7-.1-1.1-.3-.3-.2-.5-.4-.7-.7-.2-.3-.3-.6-.3-1s.1-.7.2-1c.2-.3.4-.5.7-.7s.6-.2 1-.2.7.1 1 .2.5.4.7.7c.2.3.2.6.2 1l-.2.1zm-2.8-1.3c-.3.2-.4.5-.4.9h2.7c0-.4-.2-.7-.4-.9-.3-.2-.6-.4-.9-.4-.5.1-.8.2-1 .4zm7.9 2.6V38h-.5v-1h-3.5v-3.9h.5v3.4h2.4v-3.4h.5v3.4h.6zm3.7-2.9h-1.5v3.4h-.4v-3.4h-1.5v-.5h3.4v.5zm4 1.6h-3.2c0 .4.2.7.5 1 .3.2.6.4 1.1.4.2 0 .5 0 .7-.1.2-.1.4-.2.5-.4l.3.3c-.2.2-.4.4-.6.5-.3.1-.5.2-.8.2-.4 0-.7-.1-1.1-.3-.3-.2-.5-.4-.7-.7-.2-.3-.3-.6-.3-1s.1-.7.2-1c.2-.3.4-.5.7-.7.3-.2.6-.2 1-.2s.7.1 1 .2c.3.2.5.4.7.7.2.3.2.6.2 1l-.2.1zm-2.8-1.3c-.3.2-.4.5-.4.9h2.7c0-.4-.2-.7-.4-.9-.3-.2-.6-.4-.9-.4-.4.1-.7.2-1 .4zm6.3 3.1l-1.2-1.6-1.2 1.6h-.6l1.5-2-1.5-1.9h.6l1.2 1.5 1.2-1.5h.6l-1.5 1.9 1.5 2h-.6zm1.4-3.9h.5V35h2.4v-1.7h.5v3.9h-.5v-1.7h-2.4v1.7h-.5v-4zm5 0h.5v3.1l2.6-3.1h.5v3.9h-.5V34l-2.6 3.1h-.5v-3.9zm6.4 2.2h-.9v1.7h-.5v-3.9h.5v1.7h.9l1.4-1.7h.6l-1.5 1.9 1.6 2h-.6l-1.5-1.7zm2.9-2.2h.5v3.1l2.6-3.1h.5v3.9h-.5V34l-2.6 3.1h-.5v-3.9z"/></svg>