<svg xmlns="http://www.w3.org/2000/svg" viewBox="-49 141 512 512"><switch><g><path fill="#09B952" d="M207 649C68 649-45 536-45 397S68 145 207 145s252 113 252 252-113 252-252 252zm0-493.5C73.8 155.5-34.5 263.8-34.5 397S73.8 638.5 207 638.5 448.5 530.2 448.5 397 340.2 155.5 207 155.5z"/><path fill="#737281" d="M207 607.9C90.7 607.9-3.9 513.3-3.9 397c0-116.3 94.6-210.9 210.9-210.9 116.3 0 210.9 94.6 210.9 210.9 0 116.3-94.6 210.9-210.9 210.9zm0-411.3C96.5 196.6 6.6 286.5 6.6 397S96.5 597.4 207 597.4 407.4 507.5 407.4 397 317.5 196.6 207 196.6z"/><path fill="#09B952" d="M241.8 402.2v-10.5h103.8l-.3-4.3c-4.8-71.1-63.5-127.1-134.4-129.1v-10.5c80.4 2.1 145.2 68.2 145.2 149.1v5.3H241.8z"/><path fill="#09B952" d="M207 433.1c-19.9 0-36.1-16.2-36.1-36.1 0-19.9 16.2-36.1 36.1-36.1 19.9 0 36.1 16.2 36.1 36.1 0 19.9-16.2 36.1-36.1 36.1zm0-61.7c-14.1 0-25.6 11.5-25.6 25.6 0 14.1 11.5 25.6 25.6 25.6 14.1 0 25.6-11.5 25.6-25.6 0-6.8-2.7-13.2-7.5-18.1-4.9-4.8-11.3-7.5-18.1-7.5z"/><path fill="#09B952" d="M201.8 431.8h10.5v48.6h-10.5z"/><path fill="#737281" d="M201.8 195.4h10.5v16.7h-10.5zM101.655 225.037l9.093-5.25 8.352 14.461-9.093 5.251zM29.781 300.694l5.253-9.092 14.46 8.355-5.252 9.092zM5.4 391.8h16.7v10.5H5.4zM29.79 493.26l14.464-8.348 5.249 9.094-14.464 8.348zM101.597 568.96l8.35-14.462 9.093 5.25-8.35 14.462zM201.8 581.9h10.5v16.7h-10.5zM289.445 558.285l16.02-9.25 12.35 21.39-16.02 9.25z"/><path fill="#737281" d="M294.918 559.735l9.093-5.25 8.35 14.462-9.093 5.25zM364.596 493.995l5.25-9.094 14.463 8.349-5.249 9.094zM391.9 391.7h16.7v10.5h-16.7zM364.586 299.96l14.459-8.357 5.254 9.09-14.46 8.358zM294.957 234.223l8.348-14.464 9.094 5.25-8.348 14.463z"/></g></switch></svg>